<?xml version="1.0" encoding="UTF-8" standalone="no"?>
<!-- Created with Inkscape (http://www.inkscape.org/) -->

<svg
   width="120"
   height="120"
   viewBox="0 0 120 120"
   version="1.1"
   id="svg1"
   xmlns:xlink="http://www.w3.org/1999/xlink"
   xmlns="http://www.w3.org/2000/svg"
   xmlns:svg="http://www.w3.org/2000/svg">
  <defs
     id="defs1">
    <rect
       x="15.852482"
       y="19.169348"
       width="58.197956"
       height="20.357307"
       id="rect2" />
    <symbol
       id="music"
       viewBox="0 0 507.77149 480.88791">
      <title
         id="title54">Music</title>
      <path
         opacity="0.3"
         d="m 0,110.88792 v 10 h 507.77149 v -10 z m 0,60 v 10 h 507.77149 v -10 z m 0,60 v 10 h 507.77149 v -10 z m 0,60 v 10 h 507.77149 v -10 z m 0,60 v 10 h 507.77149 v -10 z m 0,60 v 10 h 507.77149 v -10 z m 0,60 v 10 h 507.77149 v -10 z"
         id="path55" />
      <path
         d="m 393.3711,0.00314739 c -2.49386,0.03902 -4.91669,0.438478 -7.21485,1.17382801 a 24.774244,24.774244 0 0 0 -4.27734,1.316407 L 169.97657,86.487525 a 24.774244,24.774244 0 0 0 -11.67578,9.27735 c -4.11773,4.632155 -6.30673,10.495635 -6.22852,16.740235 l -0.002,-0.15625 v 215.16602 c -10.45687,-5.31124 -22.23405,-8.39844 -34.71875,-8.39844 -42.376704,0 -77.025398,34.60069 -77.025398,76.98633 0,42.38563 34.639744,77.02343 77.025398,77.02343 37.48833,0 76.65603,-24.83003 83.43359,-69.91992 0.0134,-0.0607 0.0622,-0.2047 0.0742,-0.25976 0.14126,-0.64545 0.17606,-0.93995 0.21484,-1.22657 0.0776,-0.57323 0.114,-0.98326 0.1543,-1.45703 0.0806,-0.94753 0.14937,-2.03727 0.21094,-3.28906 0.12313,-2.50359 0.21334,-5.55996 0.17383,-8.4707 V 127.24144 L 368.98626,60.897685 V 240.09105 c -10.45656,-5.31085 -22.23453,-8.39649 -34.71875,-8.39649 -42.37668,0 -77.02344,34.60068 -77.02344,76.98633 0,42.38564 34.6378,77.02344 77.02344,77.02344 37.48342,0 76.64647,-24.82369 83.43164,-69.90235 0.0144,-0.0652 0.0653,-0.21861 0.0781,-0.27734 0.14125,-0.64544 0.1741,-0.93995 0.21289,-1.22656 0.0776,-0.57324 0.114,-0.98327 0.15429,-1.45703 0.0806,-0.94754 0.14937,-2.03727 0.21094,-3.28907 0.12314,-2.50358 0.21335,-5.55997 0.17383,-8.4707 l 0.002,0.16797 V 24.926985 l -0.002,0.15625 c 0.0849,-6.766277 -2.48937,-13.078338 -7.28125,-17.8554676 -4.79196,-4.777236 -11.10939,-7.33017701 -17.875,-7.22461001 a 12.387122,12.387122 0 0 0 -0.002,0 z"
         id="path56" />
    </symbol>
    <symbol
       id="cinema2"
       viewBox="0 0 463.19773 530.92224">
      <title
         id="title16">Cinema 2</title>
      <path
         d="m 270.6273,0 c -3.77179,2.707161 -7.33119,5.738548 -10.78358,8.933679 l 12.49813,25.988884 -19.94286,9.610473 -9.38488,-19.536783 c -3.38522,3.053347 -6.83541,5.917741 -10.51286,8.392244 L 271.89065,115.28056 86.35889,204.57223 36.862706,101.69956 c -0.856363,0.34676 -1.686433,0.72444 -2.526697,1.12799 -8.334375,4.07268 -15.884276,10.90092 -23.236589,18.1832 l 16.107694,-7.76057 15.521139,32.17026 -19.942859,9.61048 -14.844346,-30.8618 C 5.295409,126.83026 2.656512,129.53254 0,132.11017 l 191.89362,398.81206 c 3.99,-4.01081 8.00274,-8.0684 12.09205,-11.82134 l -4.87292,2.34622 -15.52114,-32.17027 19.94286,-9.61047 13.94195,29.0119 c 1.20515,-0.72028 2.46081,-1.37981 3.69981,-1.98526 2.90403,-1.39468 5.90251,-2.41385 8.9788,-3.20349 l -41.32955,-85.95282 185.53176,-89.24655 50.4437,104.85792 c 12.88518,-10.38198 23.84633,-24.58871 38.39677,-32.98242 z m 21.47693,76.071626 15.47602,32.170274 -19.89774,9.56535 -15.47602,-32.17026 z M 280.32801,132.8772 365.91988,310.73862 180.38812,399.98517 94.796263,222.12375 Z m 47.05974,16.46865 15.47602,32.17027 -19.94286,9.56535 -15.47602,-32.17027 z m -264.89712,37.17854 15.47602,32.17027 -19.89774,9.61047 -15.52114,-32.17027 z m 300.13552,36.09567 15.47602,32.17027 -19.89774,9.61047 -15.47602,-32.21538 z m -264.89712,37.22367 15.52114,32.17026 -19.94286,9.56536 -15.47602,-32.17027 z m 300.18064,36.05055 15.47602,32.17027 -19.94286,9.61047 -15.47602,-32.17027 z m -264.89712,37.22366 15.47602,32.17027 -19.89774,9.56535 -15.52114,-32.17027 z m 300.13552,36.05055 15.47602,32.21539 -19.89774,9.56536 -15.47602,-32.17027 z m -264.852,37.22367 15.47602,32.17026 -19.94286,9.61048 -15.47602,-32.21539 z"
         id="path17" />
      <path
         opacity="0.331731"
         d="m 232.50119,33.38867 c -2.4523,1.650106 -5.00466,3.129328 -7.66992,4.376953 -21.62629,9.647623 -49.57665,4.750006 -70.92773,13.806641 -21.75399,8.95535 -36.23798,31.299776 -56.400387,40.019536 -19.09978,7.99135 -41.757,2.46084 -60.640628,10.10742 L 86.358628,204.57227 271.88988,115.28125 Z m 47.81836,99.45899 -185.53515,89.27344 85.58593,177.86914 185.53516,-89.27539 z m 94.03711,195.44336 -185.53125,89.24609 41.33008,85.9082 c 17.43912,-4.47294 37.17214,-0.88587 54.14258,-7.98632 20.16241,-8.71976 34.69132,-31.06611 56.44531,-40.02149 21.35108,-9.05662 49.30147,-4.15902 70.92774,-13.80664 4.71049,-2.205 9.00418,-5.159 13.1289,-8.48242 z"
         id="path18" />
    </symbol>
  </defs>
  <g
     id="layer1">
    <g
       id="g2"
       transform="translate(-0.33605239,-1.0627298)">
      <rect
         style="font-variation-settings:'wght' 700;opacity:0.974922;fill:#f4d7d7;stroke:#020108;stroke-width:0.359;stroke-linecap:square;stroke-linejoin:bevel"
         id="rect1"
         width="119.58065"
         height="118.85685"
         x="0.61121327"
         y="1.6722198" />
      <use
         xlink:href="#music"
         width="507.77148"
         height="480.88791"
         style="fill:#00aa44;stroke:none"
         id="use1"
         transform="matrix(0.21852965,0,0,0.17952615,5.45536,27.037539)" />
      <text
         xml:space="preserve"
         id="text1"
         style="font-style:italic;font-variant:normal;font-weight:600;font-stretch:normal;font-size:5.33333px;line-height:1.25;font-family:'URW Bookman';-inkscape-font-specification:'URW Bookman, Semi-Bold Italic';font-variant-ligatures:normal;font-variant-caps:normal;font-variant-numeric:normal;font-variant-east-asian:normal;white-space:pre;shape-inside:url(#rect2);fill:#00aa44"
         transform="matrix(3.9981147,0,0,4.9572072,-57.558519,-91.417476)"><tspan
           x="15.851562"
           y="23.740586"
           id="tspan1">MAGPINY</tspan></text>
      <use
         xlink:href="#cinema2"
         width="463.19772"
         height="530.92224"
         style="fill:#0066ff;stroke:none"
         id="use1-0"
         transform="matrix(0.16282717,-0.048179,0.04519897,0.12685786,23.362042,60.816109)" />
    </g>
  </g>
</svg>
